<svg width="20" height="20" viewBox="0 0 20 20" fill="none" xmlns="http://www.w3.org/2000/svg">
<g clip-path="url(#clip0_1957_21)">
<path fill="#0062ff" d="M2.82031 17.8466C2.82031 18.3438 3.01786 18.8208 3.36949 19.1724C3.72112 19.524 4.19803 19.7216 4.69531 19.7216H15.9453C16.4426 19.7216 16.9195 19.524 17.2711 19.1724C17.6228 18.8208 17.8203 18.3438 17.8203 17.8466V4.72156H2.82031V17.8466ZM13.4453 7.84656C13.4453 7.6808 13.5112 7.52183 13.6284 7.40462C13.7456 7.28741 13.9046 7.22156 14.0703 7.22156C14.2361 7.22156 14.395 7.28741 14.5123 7.40462C14.6295 7.52183 14.6953 7.6808 14.6953 7.84656V16.5966C14.6953 16.7623 14.6295 16.9213 14.5123 17.0385C14.395 17.1557 14.2361 17.2216 14.0703 17.2216C13.9046 17.2216 13.7456 17.1557 13.6284 17.0385C13.5112 16.9213 13.4453 16.7623 13.4453 16.5966V7.84656ZM9.69531 7.84656C9.69531 7.6808 9.76116 7.52183 9.87837 7.40462C9.99558 7.28741 10.1546 7.22156 10.3203 7.22156C10.4861 7.22156 10.645 7.28741 10.7623 7.40462C10.8795 7.52183 10.9453 7.6808 10.9453 7.84656V16.5966C10.9453 16.7623 10.8795 16.9213 10.7623 17.0385C10.645 17.1557 10.4861 17.2216 10.3203 17.2216C10.1546 17.2216 9.99558 17.1557 9.87837 17.0385C9.76116 16.9213 9.69531 16.7623 9.69531 16.5966V7.84656ZM5.94531 7.84656C5.94531 7.6808 6.01116 7.52183 6.12837 7.40462C6.24558 7.28741 6.40455 7.22156 6.57031 7.22156C6.73607 7.22156 6.89504 7.28741 7.01225 7.40462C7.12946 7.52183 7.19531 7.6808 7.19531 7.84656V16.5966C7.19531 16.7623 7.12946 16.9213 7.01225 17.0385C6.89504 17.1557 6.73607 17.2216 6.57031 17.2216C6.40455 17.2216 6.24558 17.1557 6.12837 17.0385C6.01116 16.9213 5.94531 16.7623 5.94531 16.5966V7.84656ZM18.4453 0.971564H13.7578L13.3906 0.241096C13.3128 0.0849293 13.193 -0.0464345 13.0447 -0.138217C12.8963 -0.23 12.7252 -0.278561 12.5508 -0.278436H8.08594C7.91187 -0.279105 7.74113 -0.230725 7.59328 -0.13884C7.44544 -0.0469554 7.32647 0.0847186 7.25 0.241096L6.88281 0.971564H2.19531C2.02955 0.971564 1.87058 1.03741 1.75337 1.15462C1.63616 1.27183 1.57031 1.4308 1.57031 1.59656L1.57031 2.84656C1.57031 3.01232 1.63616 3.1713 1.75337 3.28851C1.87058 3.40572 2.02955 3.47156 2.19531 3.47156H18.4453C18.6111 3.47156 18.77 3.40572 18.8873 3.28851C19.0045 3.1713 19.0703 3.01232 19.0703 2.84656V1.59656C19.0703 1.4308 19.0045 1.27183 18.8873 1.15462C18.77 1.03741 18.6111 0.971564 18.4453 0.971564Z"/>
</g>
<defs>
<clipPath id="clip0_1957_21">
<rect width="20" height="20" fill="white"/>
</clipPath>
</defs>
</svg>
